<svg width="263" height="43" viewBox="0 0 263 43" fill="none" xmlns="http://www.w3.org/2000/svg">
<path d="M13.0902 0.758996C17.6529 0.758996 21.5666 1.585 24.8312 3.237C28.0959 4.889 30.5936 7.26867 32.3242 10.376C34.0549 13.4833 34.9202 17.1807 34.9202 21.468C34.9202 25.716 34.0549 29.3937 32.3242 32.501C30.5936 35.569 28.0959 37.929 24.8312 39.581C21.5666 41.1937 17.6529 42 13.0902 42H0.877227V0.758996H13.0902ZM13.0902 38.578C18.8329 38.578 23.1989 37.0833 26.1882 34.094C29.2169 31.0653 30.7312 26.8567 30.7312 21.468C30.7312 16.04 29.2169 11.8117 26.1882 8.783C23.1989 5.715 18.8329 4.181 13.0902 4.181H5.00723V38.578H13.0902ZM71.6805 24.241C71.6805 25.657 71.6411 26.7387 71.5625 27.486H44.8355C44.9535 29.9247 45.5435 32.0093 46.6055 33.74C47.6675 35.4707 49.0638 36.7883 50.7945 37.693C52.5251 38.5583 54.4131 38.991 56.4585 38.991C59.1331 38.991 61.3751 38.342 63.1845 37.044C65.0331 35.746 66.2525 33.9957 66.8425 31.793H71.2085C70.4218 34.9397 68.7305 37.516 66.1345 39.522C63.5778 41.4887 60.3525 42.472 56.4585 42.472C53.4298 42.472 50.7158 41.8033 48.3165 40.466C45.9171 39.0893 44.0291 37.162 42.6525 34.684C41.3151 32.1667 40.6465 29.2363 40.6465 25.893C40.6465 22.5497 41.3151 19.6193 42.6525 17.102C43.9898 14.5847 45.8581 12.6573 48.2575 11.32C50.6568 9.98267 53.3905 9.314 56.4585 9.314C59.5265 9.314 62.2011 9.98267 64.4825 11.32C66.8031 12.6573 68.5731 14.4667 69.7925 16.748C71.0511 18.99 71.6805 21.4877 71.6805 24.241ZM67.4915 24.123C67.5308 21.7237 67.0391 19.6783 66.0165 17.987C65.0331 16.2957 63.6761 15.0173 61.9455 14.152C60.2148 13.2867 58.3268 12.854 56.2815 12.854C53.2135 12.854 50.5978 13.8373 48.4345 15.804C46.2711 17.7707 45.0715 20.5437 44.8355 24.123H67.4915ZM90.6826 37.988L101.539 9.786H105.905L92.9836 42H88.3226L75.4016 9.786H79.8266L90.6826 37.988ZM115.632 38.637H130.441V42H111.502V0.758996H115.632V38.637ZM165.481 24.241C165.481 25.657 165.442 26.7387 165.363 27.486H138.636C138.754 29.9247 139.344 32.0093 140.406 33.74C141.468 35.4707 142.865 36.7883 144.595 37.693C146.326 38.5583 148.214 38.991 150.259 38.991C152.934 38.991 155.176 38.342 156.985 37.044C158.834 35.746 160.053 33.9957 160.643 31.793H165.009C164.223 34.9397 162.531 37.516 159.935 39.522C157.379 41.4887 154.153 42.472 150.259 42.472C147.231 42.472 144.517 41.8033 142.117 40.466C139.718 39.0893 137.83 37.162 136.453 34.684C135.116 32.1667 134.447 29.2363 134.447 25.893C134.447 22.5497 135.116 19.6193 136.453 17.102C137.791 14.5847 139.659 12.6573 142.058 11.32C144.458 9.98267 147.191 9.314 150.259 9.314C153.327 9.314 156.002 9.98267 158.283 11.32C160.604 12.6573 162.374 14.4667 163.593 16.748C164.852 18.99 165.481 21.4877 165.481 24.241ZM161.292 24.123C161.332 21.7237 160.84 19.6783 159.817 17.987C158.834 16.2957 157.477 15.0173 155.746 14.152C154.016 13.2867 152.128 12.854 150.082 12.854C147.014 12.854 144.399 13.8373 142.235 15.804C140.072 17.7707 138.872 20.5437 138.636 24.123H161.292ZM171.149 25.834C171.149 22.53 171.798 19.639 173.096 17.161C174.434 14.6437 176.263 12.7163 178.583 11.379C180.943 10.0023 183.598 9.314 186.548 9.314C189.616 9.314 192.252 10.022 194.454 11.438C196.696 12.854 198.309 14.6633 199.292 16.866V9.786H203.422V42H199.292V34.861C198.27 37.0637 196.637 38.8927 194.395 40.348C192.193 41.764 189.557 42.472 186.489 42.472C183.579 42.472 180.943 41.7837 178.583 40.407C176.263 39.0303 174.434 37.0833 173.096 34.566C171.798 32.0487 171.149 29.138 171.149 25.834ZM199.292 25.893C199.292 23.297 198.761 21.0157 197.699 19.049C196.637 17.0823 195.182 15.568 193.333 14.506C191.524 13.444 189.518 12.913 187.315 12.913C185.034 12.913 182.989 13.4243 181.179 14.447C179.37 15.4697 177.934 16.9643 176.872 18.931C175.85 20.8583 175.338 23.1593 175.338 25.834C175.338 28.4693 175.85 30.79 176.872 32.796C177.934 34.7627 179.37 36.277 181.179 37.339C182.989 38.3617 185.034 38.873 187.315 38.873C189.518 38.873 191.524 38.342 193.333 37.28C195.182 36.218 196.637 34.7037 197.699 32.737C198.761 30.7703 199.292 28.489 199.292 25.893ZM216.981 15.509C217.886 13.503 219.262 11.9493 221.111 10.848C222.999 9.74666 225.3 9.196 228.014 9.196V13.503H226.893C223.904 13.503 221.504 14.3093 219.695 15.922C217.886 17.5347 216.981 20.229 216.981 24.005V42H212.851V9.786H216.981V15.509ZM249.331 9.196C253.186 9.196 256.332 10.3957 258.771 12.795C261.21 15.155 262.429 18.5967 262.429 23.12V42H258.358V23.592C258.358 20.0913 257.473 17.4167 255.703 15.568C253.972 13.7193 251.593 12.795 248.564 12.795C245.457 12.795 242.979 13.7783 241.13 15.745C239.281 17.7117 238.357 20.6027 238.357 24.418V42H234.227V9.786H238.357V15.273C239.38 13.3063 240.855 11.8117 242.782 10.789C244.709 9.727 246.892 9.196 249.331 9.196Z" fill="#B11B1B"/>
</svg>
